<svg id="图层_1" data-name="图层 1" xmlns="http://www.w3.org/2000/svg" viewBox="0 0 75 36"><defs><style>.cls-1{fill:#5a5a5a;}.cls-2{fill:#cd0f14;}</style></defs><title>新版logo</title><polygon class="cls-1" points="58.18 10.33 58.18 6.31 44.13 6.31 44.13 29.09 48.84 29.09 48.85 19.9 57.47 19.9 57.47 15.91 48.85 15.91 48.85 10.33 58.18 10.33"/><path class="cls-1" d="M720,385.67c-3.37-1.21-4-2-4-3.32,0-1.08.9-2.35,3.41-2.35a8.74,8.74,0,0,1,3.91.9l.92.47,1.39-3.8-.64-.34a11.74,11.74,0,0,0-5.48-1.14,9.39,9.39,0,0,0-5.92,1.83,6,6,0,0,0-2.33,4.75c0,3.09,2.15,5.31,6.59,6.78,3.13,1.12,3.72,2.07,3.72,3.44,0,1.75-1.45,2.8-3.88,2.8a10.19,10.19,0,0,1-4.82-1.27l-.88-.5-1.39,3.82.58.36a13.32,13.32,0,0,0,6.3,1.5c6.13,0,8.87-3.48,8.87-6.93C726.39,388.52,723.16,386.81,720,385.67Z" transform="translate(-651.39 -370.08)"/><path class="cls-2" d="M676.6,391.08H665.11a2.7,2.7,0,1,1,0-5.4H676.6a2.7,2.7,0,1,1,0,5.4Zm-7.42,8.4h-4.83a2.4,2.4,0,1,1,0-4.8h4.83a2.4,2.4,0,1,1,0,4.8Zm16.07-17.4H665.9a3,3,0,1,1,0-6H683a17.82,17.82,0,1,0,3.49,5.71A3.08,3.08,0,0,1,685.25,382.08Z" transform="translate(-651.39 -370.08)"/><path class="cls-2" d="M688.27,379.08a3,3,0,0,0-3-3H683a18,18,0,0,1,3.49,5.71A3,3,0,0,0,688.27,379.08Z" transform="translate(-651.39 -370.08)"/></svg>