<svg 
 xmlns="http://www.w3.org/2000/svg"
 xmlns:xlink="http://www.w3.org/1999/xlink"
 width="10px" height="12px">
<path fill-rule="evenodd"  fill="rgba(38,163,224,1)"
 d="M4.996,9.000 L-0.001,12.000 L-0.001,1.000 C-0.001,0.448 0.447,-0.000 0.999,-0.000 L8.999,-0.000 C9.551,-0.000 9.999,0.448 9.999,1.000 L9.999,12.000 L4.996,9.000 ZM8.999,1.750 C8.999,1.336 8.641,1.000 8.199,1.000 L1.799,1.000 C1.357,1.000 0.999,1.336 0.999,1.750 L0.999,10.000 L4.996,7.750 L8.999,10.000 L8.999,1.750 ZM3.000,3.500 C3.000,3.224 3.223,3.000 3.500,3.000 L6.500,3.000 C6.776,3.000 7.000,3.224 7.000,3.500 C7.000,3.776 6.776,4.000 6.500,4.000 L3.500,4.000 C3.223,4.000 3.000,3.776 3.000,3.500 Z"/>
</svg>